<svg width="180" height="180" viewBox="0 0 180 180" fill="none" xmlns="http://www.w3.org/2000/svg">
  <g transform="translate(90 90)">
    <ellipse rx="5" ry="13" fill="#E8C96D" transform="rotate(0) translate(0 -34)"/>
    <ellipse rx="5" ry="13" fill="#E8C96D" transform="rotate(30) translate(0 -34)"/>
    <ellipse rx="5" ry="13" fill="#E8C96D" transform="rotate(60) translate(0 -34)"/>
    <ellipse rx="5" ry="13" fill="#E8C96D" transform="rotate(90) translate(0 -34)"/>
    <ellipse rx="5" ry="13" fill="#E8C96D" transform="rotate(120) translate(0 -34)"/>
    <ellipse rx="5" ry="13" fill="#E8C96D" transform="rotate(150) translate(0 -34)"/>
    <ellipse rx="5" ry="13" fill="#E8C96D" transform="rotate(180) translate(0 -34)"/>
    <ellipse rx="5" ry="13" fill="#E8C96D" transform="rotate(210) translate(0 -34)"/>
    <ellipse rx="5" ry="13" fill="#E8C96D" transform="rotate(240) translate(0 -34)"/>
    <ellipse rx="5" ry="13" fill="#E8C96D" transform="rotate(270) translate(0 -34)"/>
    <ellipse rx="5" ry="13" fill="#E8C96D" transform="rotate(300) translate(0 -34)"/>
    <ellipse rx="5" ry="13" fill="#E8C96D" transform="rotate(330) translate(0 -34)"/>
    <circle r="18" fill="#2A1706"/>
    <circle r="11" fill="#1A0F05"/>
  </g>
</svg>
