<svg width="640" height="180" viewBox="0 0 640 180" fill="none" xmlns="http://www.w3.org/2000/svg">
  <rect width="640" height="180" rx="20" fill="#101010"/>
  <circle cx="90" cy="90" r="62" fill="#181818" stroke="#C9A227" stroke-width="2"/>
  <circle cx="90" cy="90" r="46" stroke="#A8841A" stroke-dasharray="3 6"/>
  <g transform="translate(90 90)">
    <ellipse rx="5" ry="14" fill="#E8C96D" transform="rotate(0) translate(0 -31)"/>
    <ellipse rx="5" ry="14" fill="#E8C96D" transform="rotate(45) translate(0 -31)"/>
    <ellipse rx="5" ry="14" fill="#E8C96D" transform="rotate(90) translate(0 -31)"/>
    <ellipse rx="5" ry="14" fill="#E8C96D" transform="rotate(135) translate(0 -31)"/>
    <ellipse rx="5" ry="14" fill="#E8C96D" transform="rotate(180) translate(0 -31)"/>
    <ellipse rx="5" ry="14" fill="#E8C96D" transform="rotate(225) translate(0 -31)"/>
    <ellipse rx="5" ry="14" fill="#E8C96D" transform="rotate(270) translate(0 -31)"/>
    <ellipse rx="5" ry="14" fill="#E8C96D" transform="rotate(315) translate(0 -31)"/>
    <circle r="16" fill="#2A1706"/>
    <text x="-13" y="7" fill="#F2DB83" font-family="Playfair Display, Georgia, serif" font-size="18" font-weight="700">CV</text>
  </g>
  <text x="180" y="78" fill="#F2DB83" font-family="Playfair Display, Georgia, serif" font-size="42" font-weight="700" letter-spacing="1.4">
    CALZATURA VILCHEZ
  </text>
  <text x="180" y="114" fill="#E8C96D" font-family="Inter, Arial, sans-serif" font-size="15" font-weight="600" letter-spacing="4">
    GIRASOL - ESTILO - CALIDAD - TRADICION
  </text>
  <line x1="180" y1="127" x2="603" y2="127" stroke="#C9A227" stroke-opacity="0.5"/>
  <text x="180" y="148" fill="#BCA055" font-family="Inter, Arial, sans-serif" font-size="12" font-weight="600" letter-spacing="2.5">
    DESDE PERU PARA TU MEJOR PASO
  </text>
</svg>
